<svg id="Group_545" data-name="Group 545" xmlns="http://www.w3.org/2000/svg" xmlns:xlink="http://www.w3.org/1999/xlink" width="32.669" height="32.67" viewBox="0 0 32.669 32.67">
  <defs>
    <clipPath id="clip-path">
      <rect id="Rectangle_738" data-name="Rectangle 738" width="32.669" height="32.67" fill="#4b4b4b"/>
    </clipPath>
  </defs>
  <g id="Group_543" data-name="Group 543" clip-path="url(#clip-path)">
    <path id="Path_16" data-name="Path 16" d="M0,30.227V2.423a4.291,4.291,0,0,1,.581-1.26A3.329,3.329,0,0,1,2.423,0h27.8A4.128,4.128,0,0,1,31.44.548a3.016,3.016,0,0,1,1.229,2.535q-.006,13.246,0,26.492c0,.117,0,.234-.009.35a2.884,2.884,0,0,1-.611,1.582,3.033,3.033,0,0,1-2.535,1.163q-13.182-.009-26.364,0c-.117,0-.234,0-.35-.006a2.975,2.975,0,0,1-1.7-.648A3.312,3.312,0,0,1,0,30.227m12.565-9.721q0,3.81,0,7.619c0,.605.275.882.873.885,1.19.005,2.38,0,3.57,0a.806.806,0,0,0,.737-.357,1.052,1.052,0,0,0,.112-.617c0-2.55,0-5.1,0-7.651a5.568,5.568,0,0,1,.616-2.58,2.713,2.713,0,0,1,2.53-1.47,2.5,2.5,0,0,1,2.44,1.8,5.8,5.8,0,0,1,.289,1.913q0,4,0,8c0,.671.281.957.943.958q1.785,0,3.57,0c.67,0,.947-.275.941-.953-.029-3.166.076-6.332-.063-9.5a10.407,10.407,0,0,0-.652-3.331,4.973,4.973,0,0,0-3.335-3.172,8.5,8.5,0,0,0-3.347-.214,5.927,5.927,0,0,0-1.545.372,4.809,4.809,0,0,0-2.117,1.633c-.052.069-.086.2-.205.155-.089-.035-.064-.149-.065-.231,0-.244,0-.489,0-.733,0-.768-.26-1.025-1.04-1.028q-1.61-.005-3.22,0c-.771,0-1.035.268-1.035,1.035q0,3.73,0,7.459m-2.5.012q0-3.761,0-7.522a.86.86,0,0,0-.952-.98q-1.705-.02-3.41,0a.875.875,0,0,0-.96.954c-.006.117,0,.234,0,.351q0,7.2,0,14.407c0,.117,0,.234,0,.35a.86.86,0,0,0,.968.93c1.094,0,2.189,0,3.283,0,.807,0,1.072-.264,1.072-1.067q0-3.713,0-7.427m.776-13.432a3.438,3.438,0,0,0-6.876-.039,3.438,3.438,0,1,0,6.876.039" fill="#4b4b4b"/>
  </g>
</svg>
