<svg xmlns="http://www.w3.org/2000/svg" xmlns:xlink="http://www.w3.org/1999/xlink" width="213.177" height="29.903" viewBox="0 0 213.177 29.903">
  <defs>
    <clipPath id="clip-path">
      <path id="Icon_awesome-star" data-name="Icon awesome-star" d="M13.347,1,9.7,8.4,1.531,9.586a1.789,1.789,0,0,0-.989,3.052L6.45,18.395l-1.4,8.132a1.787,1.787,0,0,0,2.593,1.884l7.305-3.84,7.305,3.84a1.789,1.789,0,0,0,2.593-1.884l-1.4-8.132,5.908-5.757a1.789,1.789,0,0,0-.989-3.052L20.2,8.4,16.555,1a1.79,1.79,0,0,0-3.208,0Z" transform="translate(781.125 568.949) rotate(-90)" fill="#eee"/>
    </clipPath>
  </defs>
  <g id="Group_563" data-name="Group 563" transform="translate(-642.999 -539.047)">
    <path id="Icon_awesome-star-2" data-name="Icon awesome-star" d="M13.347,1,9.7,8.4,1.531,9.586a1.789,1.789,0,0,0-.989,3.052L6.45,18.395l-1.4,8.132a1.787,1.787,0,0,0,2.593,1.884l7.305-3.84,7.305,3.84a1.789,1.789,0,0,0,2.593-1.884l-1.4-8.132,5.908-5.757a1.789,1.789,0,0,0-.989-3.052L20.2,8.4,16.555,1a1.79,1.79,0,0,0-3.208,0Z" transform="translate(827.556 568.948) rotate(-90)" fill="#eee"/>
    <path id="Icon_awesome-star-3" data-name="Icon awesome-star" d="M13.347,1,9.7,8.4,1.531,9.586a1.789,1.789,0,0,0-.989,3.052L6.45,18.395l-1.4,8.132a1.787,1.787,0,0,0,2.593,1.884l7.305-3.84,7.305,3.84a1.789,1.789,0,0,0,2.593-1.884l-1.4-8.132,5.908-5.757a1.789,1.789,0,0,0-.989-3.052L20.2,8.4,16.555,1a1.79,1.79,0,0,0-3.208,0Z" transform="translate(781.125 568.948) rotate(-90)" fill="#eee"/>
    <path id="Icon_awesome-star-4" data-name="Icon awesome-star" d="M13.347,1,9.7,8.4,1.531,9.586a1.789,1.789,0,0,0-.989,3.052L6.45,18.395l-1.4,8.132a1.787,1.787,0,0,0,2.593,1.884l7.305-3.84,7.305,3.84a1.789,1.789,0,0,0,2.593-1.884l-1.4-8.132,5.908-5.757a1.789,1.789,0,0,0-.989-3.052L20.2,8.4,16.555,1a1.79,1.79,0,0,0-3.208,0Z" transform="translate(735.857 568.948) rotate(-90)" fill="#00823b"/>
    <path id="Icon_awesome-star-5" data-name="Icon awesome-star" d="M13.347,1,9.7,8.4,1.531,9.586a1.789,1.789,0,0,0-.989,3.052L6.45,18.395l-1.4,8.132a1.787,1.787,0,0,0,2.593,1.884l7.305-3.84,7.305,3.84a1.789,1.789,0,0,0,2.593-1.884l-1.4-8.132,5.908-5.757a1.789,1.789,0,0,0-.989-3.052L20.2,8.4,16.555,1a1.79,1.79,0,0,0-3.208,0Z" transform="translate(689.43 568.948) rotate(-90)" fill="#00823b"/>
    <path id="Icon_awesome-star-6" data-name="Icon awesome-star" d="M13.347,1,9.7,8.4,1.531,9.586a1.789,1.789,0,0,0-.989,3.052L6.45,18.395l-1.4,8.132a1.787,1.787,0,0,0,2.593,1.884l7.305-3.84,7.305,3.84a1.789,1.789,0,0,0,2.593-1.884l-1.4-8.132,5.908-5.757a1.789,1.789,0,0,0-.989-3.052L20.2,8.4,16.555,1a1.79,1.79,0,0,0-3.208,0Z" transform="translate(642.999 568.948) rotate(-90)" fill="#00823b"/>
    <g id="Mask_Group_7" data-name="Mask Group 7" clip-path="url(#clip-path)">
      <rect id="Rectangle_775" data-name="Rectangle 775" width="26" height="51" transform="translate(773.176 527.998)" fill="#00823b"/>
    </g>
  </g>
</svg>
