<svg xmlns="http://www.w3.org/2000/svg" width="72.395" height="72.395" viewBox="0 0 72.395 72.395">
  <path id="Icon_simple-wheniwork" data-name="Icon simple-wheniwork" d="M36.2,72.395a36.2,36.2,0,1,1,36.2-36.2A36.226,36.226,0,0,1,36.2,72.395Zm0-66.32A30.125,30.125,0,1,0,66.323,36.2,30.2,30.2,0,0,0,36.2,6.075ZM53.949,39.7H27.791a2.1,2.1,0,0,1-2.105-2.084V34.565a2.1,2.1,0,0,1,2.105-2.1H54.178a2.1,2.1,0,0,1,2.1,2.1V37.6a2.482,2.482,0,0,1-2.332,2.1ZM47.174,28.026H20.786a2.093,2.093,0,0,1-2.105-2.084V22.895a2.061,2.061,0,0,1,2.1-1.873H47.171a2.013,2.013,0,0,1,1.87,1.867v3.035a2.06,2.06,0,0,1-1.867,2.1ZM20.786,44.369H47.174a2.092,2.092,0,0,1,2.1,2.1v3.035a2.1,2.1,0,0,1-2.084,2.1h-26.4a2.477,2.477,0,0,1-2.1-2.332V46.242a2.059,2.059,0,0,1,2.1-1.873Z" fill="#00823b"/>
</svg>
