<svg xmlns="http://www.w3.org/2000/svg" width="22.051" height="19.601" viewBox="0 0 22.051 19.601">
  <path id="Icon_awesome-external-link-alt" data-name="Icon awesome-external-link-alt" d="M22.051.919v4.9a.919.919,0,0,1-1.568.65L19.115,5.1,9.793,14.424a.919.919,0,0,1-1.3,0l-.866-.866a.919.919,0,0,1,0-1.3L16.95,2.935,15.583,1.568A.919.919,0,0,1,16.233,0h4.9A.919.919,0,0,1,22.051.919Zm-6.469,9.448-.613.613a.919.919,0,0,0-.269.65v5.522H2.45V4.9H12.557a.919.919,0,0,0,.65-.269l.613-.613a.919.919,0,0,0-.65-1.568H1.838A1.838,1.838,0,0,0,0,4.288V17.763A1.838,1.838,0,0,0,1.838,19.6H15.313a1.838,1.838,0,0,0,1.838-1.838V11.016A.919.919,0,0,0,15.582,10.367Z" fill="#4b9cbb"/>
</svg>
