<svg xmlns="http://www.w3.org/2000/svg" width="53.237" height="53.237" viewBox="0 0 53.237 53.237">
  <g id="Icon_feather-image" data-name="Icon feather-image" transform="translate(56.237 56.237) rotate(180)">
    <path id="Path_19" data-name="Path 19" d="M10.013,4.5H48.6a5.513,5.513,0,0,1,5.513,5.513V48.6A5.513,5.513,0,0,1,48.6,54.115H10.013A5.513,5.513,0,0,1,4.5,48.6V10.013A5.513,5.513,0,0,1,10.013,4.5Z" fill="none" stroke="#000" stroke-linecap="round" stroke-linejoin="round" stroke-width="3"/>
    <path id="Path_20" data-name="Path 20" d="M18.769,14.635A4.135,4.135,0,1,1,14.635,10.5,4.135,4.135,0,0,1,18.769,14.635Z" transform="translate(5.026 5.026)" fill="none" stroke="#000" stroke-linecap="round" stroke-linejoin="round" stroke-width="3"/>
    <path id="Path_21" data-name="Path 21" d="M51.6,28.782,37.82,15,7.5,45.32" transform="translate(2.513 8.795)" fill="none" stroke="#000" stroke-linecap="round" stroke-linejoin="round" stroke-width="3"/>
  </g>
</svg>
