<svg id="Group_2" data-name="Group 2" xmlns="http://www.w3.org/2000/svg" xmlns:xlink="http://www.w3.org/1999/xlink" width="215.243" height="39.689" viewBox="0 0 215.243 39.689">
  <defs>
    <clipPath id="clip-path">
      <rect id="Rectangle_3" data-name="Rectangle 3" width="215.243" height="39.689" fill="none"/>
    </clipPath>
  </defs>
  <g id="Group_1" data-name="Group 1" clip-path="url(#clip-path)">
    <path id="Path_1" data-name="Path 1" d="M24.977,58.713a14.017,14.017,0,0,1-10.5,4.31C6.576,63.023,0,58.271,0,48.6S6.576,34.178,14.478,34.178a12.936,12.936,0,0,1,9.836,4.034l-4.255,4.476a8.276,8.276,0,0,0-5.471-2.155A7.664,7.664,0,0,0,6.741,48.6c0,5.194,3.537,7.957,7.736,7.957a8.19,8.19,0,0,0,5.968-2.266Z" transform="translate(0 -23.334)" fill="#232323"/>
    <rect id="Rectangle_1" data-name="Rectangle 1" width="6.686" height="38.626" transform="translate(27.96 0.235)" fill="#232323"/>
    <path id="Path_2" data-name="Path 2" d="M324.874,35.071l.5,3.15c2.1-3.371,4.918-3.868,7.681-3.868a10.337,10.337,0,0,1,7.018,2.6l-3.039,5.857a6.736,6.736,0,0,0-4.863-1.768c-3.536,0-6.8,1.879-6.8,6.907V62.314H318.63V35.071Z" transform="translate(-217.533 -23.453)" fill="#232323"/>
    <path id="Path_3" data-name="Path 3" d="M400.953.566V15.707a10.06,10.06,0,0,1,8.51-4.089c7.736,0,11.162,5.25,11.162,13.262V39.247h-6.742V24.935c0-4.973-2.6-7.073-6.189-7.073-3.979,0-6.741,3.371-6.741,7.46V39.247h-6.741V.566Z" transform="translate(-269.134 -0.386)" fill="#00823b"/>
    <path id="Path_4" data-name="Path 4" d="M494.862,3.937c0,5.249-7.957,5.249-7.957,0s7.957-5.25,7.957,0m-7.35,34.923h6.741V11.507h-6.741Z" transform="translate(-332.417 0)" fill="#00823b"/>
    <path id="Path_5" data-name="Path 5" d="M527.672,35.071l.5,3.15c2.1-3.371,4.918-3.868,7.681-3.868a10.336,10.336,0,0,1,7.018,2.6l-3.039,5.857a6.736,6.736,0,0,0-4.863-1.768c-3.536,0-6.8,1.879-6.8,6.907V62.314h-6.741V35.071Z" transform="translate(-355.986 -23.453)" fill="#00823b"/>
    <path id="Path_6" data-name="Path 6" d="M595.965,50.858c.442,3.371,3.371,5.8,8.123,5.8,2.487,0,5.747-.939,7.294-2.542l4.31,4.255c-2.873,2.984-7.57,4.421-11.715,4.421-9.394,0-14.975-5.8-14.975-14.533C589,39.972,594.638,34,603.48,34c9.117,0,14.809,5.637,13.759,16.854Zm14.809-5.581c-.442-3.536-3.2-5.3-7.073-5.3-3.647,0-6.631,1.768-7.626,5.3Z" transform="translate(-402.12 -23.215)" fill="#00823b"/>
    <rect id="Rectangle_2" data-name="Rectangle 2" width="31.882" height="5.581" transform="translate(41.391 22.393)" fill="#232323"/>
    <path id="Path_7" data-name="Path 7" d="M297.084,79.373V93.05h-1.239a4.343,4.343,0,0,1-4.342-4.343V82.043Z" transform="translate(-199.013 -54.189)" fill="#232323"/>
    <path id="Path_8" data-name="Path 8" d="M232.751,39.772a8.627,8.627,0,1,1-8.627,8.627,8.637,8.637,0,0,1,8.627-8.627m0-5.768A14.395,14.395,0,1,0,247.146,48.4,14.395,14.395,0,0,0,232.751,34" transform="translate(-149.075 -23.215)" fill="#232323"/>
    <path id="Path_9" data-name="Path 9" d="M146.6,51.188a14.375,14.375,0,1,0-1.235,3.631h-7.1a8.643,8.643,0,1,1,2.863-6.421,8.519,8.519,0,0,1-.466,2.79Z" transform="translate(-80.617 -23.213)" fill="#232323"/>
    <path id="Path_10" data-name="Path 10" d="M250.756,57.727a8.426,8.426,0,0,0-8.711,5.928,1,1,0,0,0,1.757.92,20.958,20.958,0,0,1,6.955-6.848" transform="translate(-165.204 -39.404)" fill="#232323"/>
  </g>
</svg>
