<svg xmlns="http://www.w3.org/2000/svg" width="20.968" height="21.907" viewBox="0 0 20.968 21.907">
  <path id="Icon_awesome-star" data-name="Icon awesome-star" d="M11.22.728,8.546,6.15l-5.982.872a1.311,1.311,0,0,0-.725,2.236l4.328,4.218L5.143,19.433a1.31,1.31,0,0,0,1.9,1.38L12.395,18l5.352,2.813a1.311,1.311,0,0,0,1.9-1.38l-1.024-5.958,4.328-4.218a1.311,1.311,0,0,0-.725-2.236L16.244,6.15,13.57.728a1.311,1.311,0,0,0-2.35,0Z" transform="translate(0.001 23.348) rotate(-90)" fill="#00823b"/>
</svg>
