<svg xmlns="http://www.w3.org/2000/svg" width="224.927" height="224.926" viewBox="0 0 224.927 224.926">
  <path id="Icon_awesome-search-dollar" data-name="Icon awesome-search-dollar" d="M221.869,194.465l-43.8-43.795a10.536,10.536,0,0,0-7.468-3.075h-7.161a91.358,91.358,0,1,0-15.815,15.811v7.161a10.536,10.536,0,0,0,3.075,7.468l43.8,43.795a10.5,10.5,0,0,0,14.893,0L221.825,209.4a10.588,10.588,0,0,0,.044-14.932ZM91.385,154.619a63.252,63.252,0,1,1,63.261-63.252A63.219,63.219,0,0,1,91.385,154.619Zm11.91-67.012L83.521,81.676a5.739,5.739,0,0,1-3.853-5.592c0-3.194,2.328-5.794,5.184-5.794H97.2a10.527,10.527,0,0,1,5.632,1.634,3.606,3.606,0,0,0,4.45-.321l5.162-4.925a3.519,3.519,0,0,0-.25-5.333,25.155,25.155,0,0,0-13.781-4.986V49.2A3.514,3.514,0,0,0,94.9,45.688H87.871A3.513,3.513,0,0,0,84.356,49.2v7.082a19.564,19.564,0,0,0-18.75,19.8A19.882,19.882,0,0,0,79.48,95.146l19.773,5.931a5.739,5.739,0,0,1,3.853,5.592c0,3.194-2.328,5.794-5.184,5.794H85.577a10.527,10.527,0,0,1-5.632-1.634,3.606,3.606,0,0,0-4.45.321l-5.162,4.925a3.519,3.519,0,0,0,.25,5.333,25.155,25.155,0,0,0,13.781,4.986v7.156a3.514,3.514,0,0,0,3.514,3.514h7.029a3.514,3.514,0,0,0,3.514-3.514v-7.082a19.561,19.561,0,0,0,18.75-19.8,19.88,19.88,0,0,0-13.878-19.062Z" fill="#009242"/>
</svg>
