<svg id="Group_559" data-name="Group 559" xmlns="http://www.w3.org/2000/svg" xmlns:xlink="http://www.w3.org/1999/xlink" width="30.441" height="30.445" viewBox="0 0 30.441 30.445">
  <defs>
    <clipPath id="clip-path">
      <rect id="Rectangle_756" data-name="Rectangle 756" width="30.441" height="30.445" fill="#eee"/>
    </clipPath>
  </defs>
  <g id="Group_558" data-name="Group 558" clip-path="url(#clip-path)">
    <path id="Path_27" data-name="Path 27" d="M15.24,0a15.341,15.341,0,0,1,15.2,15.266A15.344,15.344,0,0,1,15.251,30.445,15.353,15.353,0,0,1,0,15.227,15.34,15.34,0,0,1,15.24,0M6.31,13.752a5.863,5.863,0,0,0,.921,2.925c1.783,3.239,4.612,5.444,7.538,7.547.454.326.8.094,1.15-.179,1.191-.934,2.434-1.81,3.559-2.817a14.757,14.757,0,0,0,4.366-6.006,5.276,5.276,0,0,0-1.877-6.073,4.895,4.895,0,0,0-6.122.1.831.831,0,0,1-1.257-.009,4.663,4.663,0,0,0-5.276-.587,5.207,5.207,0,0,0-3,5.1" transform="translate(0 0)" fill="#eee"/>
  </g>
</svg>
